<?xml version="1.0" encoding="iso-8859-1"?>
<!-- Uploaded to: SVG Repo, www.svgrepo.com, Generator: SVG Repo Mixer Tools -->
<svg version="1.1" id="Layer_1" xmlns="http://www.w3.org/2000/svg" xmlns:xlink="http://www.w3.org/1999/xlink" 
	 viewBox="0 0 512 512" xml:space="preserve">
<path style="fill:#E4EAF8;" d="M384.286,310.98H127.714c-5.06,0-9.163-4.103-9.163-9.163V283.49c0-5.06,4.103-9.163,9.163-9.163
	h256.573c5.06,0,9.163,4.103,9.163,9.163v18.327C393.45,306.877,389.347,310.98,384.286,310.98z"/>
<path style="fill:#FFC850;" d="M191.857,310.98h-64.143c-5.06,0-9.163-4.103-9.163-9.163V283.49c0-5.06,4.103-9.163,9.163-9.163
	h64.143V310.98z"/>
<rect x="191.857" y="274.327" style="fill:#D5DCED;" width="27.49" height="36.653"/>
<g>
	<path style="fill:#FF5050;" d="M365.96,310.98h18.327c5.06,0,9.163-4.103,9.163-9.163V283.49c0-5.06-4.103-9.163-9.163-9.163
		H365.96V310.98z"/>
	<path style="fill:#FF5050;" d="M256,8.591C119.579,8.591,8.591,119.579,8.591,256S119.579,503.409,256,503.409
		S503.409,392.421,503.409,256S392.421,8.591,256,8.591z M45.244,256c0-51.522,18.611-98.761,49.426-135.415l296.745,296.745
		c-36.653,30.815-83.892,49.426-135.415,49.426C139.785,466.756,45.244,372.21,45.244,256z M417.33,391.415L120.585,94.67
		C157.238,63.855,204.477,45.244,256,45.244c116.215,0,210.756,94.546,210.756,210.756
		C466.756,307.522,448.145,354.761,417.33,391.415z"/>
</g>
<path style="fill:#C84146;" d="M201.556,459.588C111.653,435.522,45.244,353.387,45.244,256c0-51.522,18.611-98.761,49.426-135.415
	l56.936,56.936c5.469-11.49,11.789-22.498,18.896-32.934L120.585,94.67C157.238,63.855,204.477,45.244,256,45.244
	c13.7,0,27.084,1.358,40.063,3.867c23.121-7.821,47.753-12.301,73.343-12.886C335.407,18.61,296.863,8.591,256,8.591
	C119.579,8.591,8.591,119.579,8.591,256S119.579,503.409,256,503.409c1.917,0,3.81-0.101,5.717-0.144
	C239.497,491.751,219.222,477.001,201.556,459.588z"/>
<path d="M268.285,169.423c2.679,2.644,5.57,5.227,8.592,7.677c1.591,1.291,3.505,1.919,5.405,1.919c2.5,0,4.98-1.087,6.678-3.18
	c2.988-3.685,2.424-9.095-1.262-12.083c-2.59-2.101-5.062-4.308-7.346-6.562c-3.378-3.333-8.817-3.297-12.148,0.081
	C264.871,160.651,264.907,166.091,268.285,169.423z"/>
<path d="M317.776,182.194c-4.266-2.081-9.407-0.312-11.489,3.952c-2.08,4.263-0.312,9.407,3.953,11.488
	c5.521,2.695,11.002,5.17,16.303,7.565c28.224,12.751,45.704,21.653,49.27,43.049c0.7,4.203,4.34,7.179,8.463,7.179
	c0.47,0,0.945-0.039,1.423-0.118c4.68-0.78,7.842-5.206,7.061-9.886c-5.256-31.537-31.431-43.363-59.145-55.882
	C328.43,187.2,323.067,184.776,317.776,182.194z"/>
<path d="M350.801,157.871c-18.748-7.372-51.663-24.122-61.451-53.491c-1.502-4.501-6.366-6.934-10.867-5.434
	c-4.501,1.5-6.933,6.365-5.434,10.867c6.292,18.874,23.796,45.306,71.466,64.048c1.032,0.405,2.095,0.598,3.141,0.598
	c3.428,0,6.666-2.066,7.997-5.45C357.389,164.594,355.217,159.607,350.801,157.871z"/>
<path d="M256,36.653c-51.508,0-101.586,18.244-141.01,51.372c-1.843,1.549-2.952,3.8-3.056,6.205
	c-0.104,2.405,0.806,4.744,2.508,6.446l25.505,25.505c3.355,3.355,8.794,3.355,12.148,0c3.355-3.355,3.355-8.793,0-12.148
	l-18.724-18.725C168.481,68.501,211.667,53.834,256,53.834c111.474,0,202.166,90.69,202.166,202.166
	c0,44.333-14.667,87.519-41.473,122.628l-59.059-59.058h26.653c9.79,0,17.754-7.964,17.754-17.754V283.49
	c0-9.79-7.964-17.754-17.754-17.754h-80.487L178.056,139.991c-3.355-3.355-8.794-3.355-12.148,0c-3.355,3.355-3.355,8.794,0,12.148
	l245.416,245.416c1.614,1.614,3.8,2.516,6.074,2.516c0.124,0,0.249-0.002,0.372-0.008c2.405-0.104,4.656-1.213,6.205-3.056
	c33.128-39.423,51.372-89.5,51.372-141.008C475.347,135.051,376.948,36.653,256,36.653z M384.859,283.49v18.327
	c0,0.316-0.257,0.573-0.573,0.573h-9.736v-19.472h9.736C384.602,282.917,384.859,283.174,384.859,283.49z M357.369,282.917v19.472
	h-16.917l-19.472-19.472H357.369z"/>
<path d="M437.02,74.981C388.668,26.629,324.38,0,256,0S123.332,26.629,74.98,74.981C26.629,123.332,0,187.62,0,256
	s26.629,132.668,74.98,181.02C123.332,485.371,187.62,512,256,512s132.668-26.629,181.02-74.98C485.371,388.668,512,324.38,512,256
	S485.371,123.332,437.02,74.981z M256,494.819C124.315,494.819,17.181,387.685,17.181,256S124.315,17.181,256,17.181
	S494.819,124.315,494.819,256S387.685,494.819,256,494.819z"/>
<path d="M381.226,394.991c-3.355-3.355-8.794-3.354-12.148,0c-3.355,3.355-3.355,8.794,0,12.149l9.55,9.552
	C343.52,443.499,300.333,458.166,256,458.166c-111.474,0-202.166-90.69-202.166-202.166c0-44.333,14.667-87.519,41.473-122.628
	l132.364,132.364h-99.958c-9.79,0-17.754,7.964-17.754,17.754v18.327c0,9.79,7.964,17.754,17.754,17.754h153.792l61.618,61.618
	c3.355,3.355,8.794,3.355,12.148,0c3.355-3.355,3.355-8.793,0-12.148L100.677,114.443c-1.702-1.702-4.048-2.614-6.446-2.508
	c-2.405,0.104-4.656,1.213-6.205,3.056C54.897,154.414,36.653,204.492,36.653,256c0,120.949,98.399,219.347,219.347,219.347
	c51.508,0,101.586-18.244,141.01-51.372c1.843-1.549,2.952-3.8,3.056-6.205c0.104-2.405-0.806-4.743-2.508-6.446L381.226,394.991z
	 M127.141,301.817V283.49c0-0.316,0.257-0.573,0.573-0.573h55.553v19.472h-55.553C127.398,302.389,127.141,302.133,127.141,301.817z
	 M200.447,302.389v-19.472h44.405l19.472,19.472H200.447z"/>
</svg>